PathFileType	4	(x/y/z)	S10_P20_T16
DataRate	CameraRate	NumFrames	NumMarkers	Units	OrigDataRate	OrigDataStartFrame	OrigNumFrames
240	240	7	51	mm	240	100	398
Frame#	Time	Sternum			R.Acromium			L.Acromium			Top.Head			R.ASIS			L.ASIS			R.PSIS			L.PSIS			R.Great.Tro			L.Great.Tro			R.Iliac.Crest			L.Iliac.Crest			V.Sacral			R.Thigh.Upper.Post			R.Thigh.Lower.Ant			R.Thigh.Lower.Post			R.Thigh.Upper.Ant			R.Knee.Lat			R.Knee.Med			R.Shank.Upper.Post			R.Shank.Lower.Ant			R.Shank.Lower.Post			R.Shank.Upper.Ant			R.Ankle.Lat			R.Ankle.Med			R.Heel.Upper			R.Heel.Med			R.Heel.Lat			R.Toe.Lat			R.Toe.Med			R.Toe.Tip			L.Thigh.Upper.Post			L.Thigh.Lower.Ant			L.Thigh.Lower.Post			L.Thigh.Upper.Ant			L.Knee.Lat			L.Knee.Med			L.Shank.Upper.Post			L.Shank.Lower.Ant			L.Shank.Lower.Post			L.Shank.Upper.Ant			L.Ankle.Lat			L.Ankle.Med			L.Heel.Upper			L.Heel.Med			L.Heel.Lat			L.Toe.Lat			L.Toe.Med			L.Toe.Tip			Cervical.Spine			Back			
		X1	Y1	Z1	X2	Y2	Z2	X3	Y3	Z3	X4	Y4	Z4	X5	Y5	Z5	X6	Y6	Z6	X7	Y7	Z7	X8	Y8	Z8	X9	Y9	Z9	X10	Y10	Z10	X11	Y11	Z11	X12	Y12	Z12	X13	Y13	Z13	X14	Y14	Z14	X15	Y15	Z15	X16	Y16	Z16	X17	Y17	Z17	X18	Y18	Z18	X19	Y19	Z19	X20	Y20	Z20	X21	Y21	Z21	X22	Y22	Z22	X23	Y23	Z23	X24	Y24	Z24	X25	Y25	Z25	X26	Y26	Z26	X27	Y27	Z27	X28	Y28	Z28	X29	Y29	Z29	X30	Y30	Z30	X31	Y31	Z31	X32	Y32	Z32	X33	Y33	Z33	X34	Y34	Z34	X35	Y35	Z35	X36	Y36	Z36	X37	Y37	Z37	X38	Y38	Z38	X39	Y39	Z39	X40	Y40	Z40	X41	Y41	Z41	X42	Y42	Z42	X43	Y43	Z43	X44	Y44	Z44	X45	Y45	Z45	X46	Y46	Z46	X47	Y47	Z47	X48	Y48	Z48	X49	Y49	Z49	X50	Y50	Z50	X51	Y51	Z51	

100	0.4125	-702.29	1289.5	289.07	-841.61	1444.7	435.03	-806.03	1485.9	141.26	-827.31	1767.1	309.2	-760.36	1023.8	389.61	-763.85	1029.7	159.01	-965.9	1049.5	308.26	-963.38	1056.4	226.93	-825.1	950.5	465.72	-837.86	967.8	105.49	-853.91	1106.6	434.65	-831.97	1107.4	133.24	-984.82	1020.1	271.98	-754.88	744.43	462.52	-685.01	684.92	417.22	-737.43	657.25	452.95	-702.4	774.72	420.78	-706.7	539.15	411.03	-719.32	538.53	281.92	-730.37	306.62	418.53	-652.79	259.47	407.01	-712.39	234.08	414.03	-665.36	336.02	410.68	-665.9	126.44	397.94	-657.72	141.36	319.7	-708.74	60.255	347.3	-689.15	38.051	319.99	-697.51	37.506	381.18	-532.23	78.971	433.25	-504.19	98.536	327.53	-457.79	133.23	371.39	-919.4	700.44	123.07	-861.41	609.92	148.04	-934.9	607.95	147.18	-840.65	694.65	123.3	-919.42	517.3	158.4	-902.01	516.44	287.54	-1038.5	335.06	162.41	-1006.7	229.91	181.98	-1063.1	259.36	177.02	-985.97	302.61	170.03	-1077.1	133.2	191.8	-1057.8	141.24	276.86	-1152	118.94	236.31	-1146.9	82.855	267.25	-1150	88.376	203.11	-981.09	42.688	164.6	-954.41	44.41	274.05	-897.84	45.639	226.68	-898.93	1511.4	287.4	-986.81	1306.3	261.35
101	0.41667	-697.12	1288.9	289.06	-836.25	1444.1	435.27	-801.03	1485.7	141.64	-822.06	1766.5	309.48	-754.92	1023.2	389.58	-758.83	1029.2	158.97	-960.68	1049.1	308.75	-958.16	1055.9	227.45	-819.62	949.71	465.72	-833.08	967.45	105.61	-848.37	1106	434.86	-827.47	1106.9	133.24	-979.64	1019.7	272.5	-750.36	743.31	462.35	-680.95	683.45	416.74	-733.47	656.04	452.56	-697.83	773.37	420.58	-702.44	538.33	410.52	-716.54	537.27	281.23	-723.17	305.45	418.25	-645.04	259.29	406.09	-704.23	233.12	413.62	-658.59	335.72	409.9	-656.33	125.99	397.23	-648.89	141.07	318.94	-698.75	59.282	346.92	-678.92	37.252	319.51	-686.84	36.617	380.75	-521.62	80.258	431.59	-494.67	100.28	325.71	-448.38	135.64	369.31	-915.2	700.25	123.23	-857.3	609.57	147.93	-930.85	607.8	147.3	-836.49	694.22	123.28	-915.7	517.12	158.39	-897.9	516.08	287.48	-1036	335.88	162.4	-1005.1	230.36	181.88	-1061.4	260.16	177.18	-983.76	302.9	169.99	-1076.1	134.05	191.8	-1056.8	142.1	276.81	-1151.1	120.41	236.24	-1146.3	84.364	267.25	-1149.4	89.756	203.15	-980.99	42.707	164.6	-954.2	44.445	273.95	-897.79	45.517	226.67	-893.75	1510.9	287.72	-981.7	1305.8	261.74
102	0.42083	-691.96	1288.2	289.07	-830.88	1443.4	435.53	-796.03	1485.5	142.04	-816.81	1766	309.75	-749.48	1022.6	389.57	-753.78	1028.7	158.95	-955.43	1048.6	309.23	-952.9	1055.4	227.96	-814.14	948.9	465.73	-828.24	967.09	105.73	-842.84	1105.4	435.08	-822.84	1106.4	133.25	-974.44	1019.2	273.01	-745.75	742.22	462.17	-676.78	682.04	416.27	-729.38	654.86	452.17	-693.17	772.07	420.4	-698.12	537.5	410.04	-713.67	536.06	280.58	-716.21	304.33	417.92	-637.61	259.06	405.14	-696.44	232.19	413.15	-652.04	335.38	409.09	-647.28	125.57	396.46	-640.55	140.76	318.12	-689.35	58.436	346.47	-669.35	36.547	318.97	-676.83	35.846	380.26	-511.64	81.366	429.87	-485.75	101.79	323.82	-439.53	137.73	367.17	-910.93	700.03	123.38	-853.13	609.2	147.8	-926.72	607.63	147.41	-832.28	693.77	123.27	-911.91	516.92	158.38	-893.72	515.69	287.41	-1033.4	336.7	162.37	-1003.4	230.82	181.75	-1059.7	261	177.27	-981.49	303.18	169.93	-1075.1	134.92	191.77	-1055.7	142.98	276.73	-1150.2	121.9	236.13	-1145.7	85.914	267.24	-1148.8	91.163	203.18	-980.9	42.723	164.59	-953.99	44.476	273.84	-897.74	45.407	226.66	-888.57	1510.4	288.05	-976.58	1305.2	262.15
103	0.425	-686.79	1287.6	289.11	-825.5	1442.8	435.81	-791.03	1485.2	142.45	-811.56	1765.4	310.01	-744.03	1021.9	389.57	-748.69	1028.2	158.94	-950.15	1048.1	309.69	-947.59	1054.9	228.46	-808.65	948.07	465.75	-823.35	966.71	105.85	-837.32	1104.7	435.29	-818.09	1105.9	133.29	-969.22	1018.8	273.49	-741.04	741.17	461.99	-672.47	680.7	415.82	-725.16	653.72	451.78	-688.41	770.83	420.23	-693.71	536.68	409.58	-710.7	534.89	279.98	-709.51	303.25	417.54	-630.52	258.78	404.16	-689.01	231.3	412.63	-645.71	334.99	408.25	-638.77	125.14	395.62	-632.72	140.44	317.25	-680.58	57.707	345.97	-660.46	35.924	318.36	-667.49	35.182	379.7	-502.3	82.269	428.09	-477.45	103.02	321.87	-431.24	139.45	364.97	-906.6	699.79	123.54	-848.88	608.8	147.65	-922.52	607.44	147.51	-828.02	693.3	123.25	-908.03	516.7	158.35	-889.47	515.26	287.33	-1030.8	337.52	162.31	-1001.6	231.28	181.59	-1057.9	261.87	177.3	-979.16	303.45	169.84	-1074.1	135.81	191.72	-1054.6	143.88	276.61	-1149.2	123.43	236	-1145	87.506	267.2	-1148.2	92.599	203.19	-980.8	42.734	164.57	-953.77	44.5	273.73	-897.7	45.308	226.64	-883.39	1509.8	288.4	-971.44	1304.6	262.57
104	0.42917	-681.62	1287	289.17	-820.12	1442.1	436.11	-786.01	1485	142.87	-806.3	1764.8	310.26	-738.58	1021.2	389.59	-743.57	1027.7	158.94	-944.86	1047.5	310.13	-942.26	1054.4	228.93	-803.16	947.25	465.8	-818.4	966.31	105.97	-831.81	1104	435.5	-813.23	1105.3	133.35	-963.97	1018.3	273.95	-736.25	740.17	461.8	-668.02	679.43	415.38	-720.79	652.64	451.39	-683.55	769.65	420.07	-689.21	535.87	409.14	-707.59	533.78	279.43	-703.06	302.22	417.11	-623.76	258.42	403.16	-681.94	230.43	412.05	-639.6	334.53	407.39	-630.78	124.7	394.74	-625.38	140.07	316.34	-672.44	57.086	345.42	-652.26	35.37	317.71	-658.83	34.613	379.09	-493.58	82.946	426.26	-469.76	103.96	319.87	-423.5	140.77	362.71	-902.2	699.53	123.7	-844.56	608.38	147.49	-918.24	607.23	147.61	-823.69	692.82	123.22	-904.08	516.45	158.3	-885.14	514.8	287.24	-1028.1	338.32	162.23	-999.78	231.74	181.41	-1056	262.77	177.25	-976.77	303.72	169.73	-1073.1	136.73	191.65	-1053.5	144.8	276.46	-1148.3	125	235.83	-1144.3	89.143	267.13	-1147.6	94.065	203.17	-980.71	42.742	164.55	-953.55	44.517	273.6	-897.65	45.218	226.62	-878.21	1509.2	288.76	-966.3	1304	263
105	0.43333	-676.44	1286.3	289.25	-814.73	1441.4	436.42	-781	1484.7	143.31	-801.05	1764.2	310.5	-733.13	1020.5	389.63	-738.4	1027.2	158.96	-939.53	1047	310.56	-936.88	1053.8	229.39	-797.66	946.42	465.86	-813.39	965.89	106.09	-826.31	1103.3	435.71	-808.27	1104.8	133.42	-958.7	1017.7	274.38	-731.35	739.21	461.61	-663.44	678.24	414.95	-716.28	651.61	451	-678.6	768.54	419.92	-684.63	535.07	408.7	-704.33	532.73	278.93	-696.87	301.22	416.62	-617.32	257.99	402.15	-675.23	229.58	411.43	-633.69	334.01	406.51	-623.33	124.24	393.81	-618.55	139.66	315.4	-664.93	56.565	344.83	-644.76	34.877	317.03	-650.86	34.131	378.45	-485.5	83.379	424.39	-462.67	104.57	317.82	-416.31	141.69	360.4	-897.73	699.24	123.86	-840.17	607.93	147.32	-913.89	606.99	147.7	-819.29	692.31	123.2	-900.03	516.17	158.24	-880.74	514.3	287.15	-1025.3	339.12	162.12	-997.91	232.2	181.2	-1053.9	263.71	177.14	-974.32	303.98	169.59	-1072	137.66	191.55	-1052.4	145.74	276.28	-1147.2	126.59	235.62	-1143.6	90.828	267.04	-1146.9	95.565	203.14	-980.61	42.744	164.51	-953.32	44.526	273.47	-897.6	45.138	226.59	-873.02	1508.6	289.15	-961.14	1303.4	263.45
106	0.4375	-671.25	1285.7	289.35	-809.35	1440.7	436.74	-775.97	1484.3	143.76	-795.79	1763.6	310.73	-727.67	1019.8	389.7	-733.21	1026.6	158.99	-934.19	1046.3	310.96	-931.48	1053.2	229.83	-792.15	945.59	465.94	-808.33	965.45	106.22	-820.81	1102.6	435.92	-803.21	1104.2	133.51	-953.39	1017.2	274.8	-726.36	738.29	461.41	-658.71	677.12	414.53	-711.61	650.63	450.61	-673.54	767.5	419.77	-679.95	534.27	408.28	-700.9	531.75	278.47	-690.92	300.25	416.09	-611.21	257.48	401.11	-668.89	228.74	410.76	-627.99	333.43	405.62	-616.41	123.74	392.85	-612.22	139.18	314.42	-658.05	56.14	344.21	-637.96	34.437	316.32	-643.58	33.731	377.78	-478.04	83.554	422.5	-456.19	104.86	315.74	-409.63	142.16	358.03	-893.18	698.93	124.03	-835.71	607.45	147.13	-909.45	606.73	147.79	-814.83	691.78	123.17	-895.9	515.87	158.17	-876.27	513.77	287.04	-1022.5	339.9	161.99	-995.99	232.65	180.96	-1051.8	264.67	176.97	-971.79	304.24	169.42	-1070.9	138.62	191.43	-1051.2	146.71	276.06	-1146.2	128.23	235.39	-1142.8	92.563	266.92	-1146.3	97.102	203.08	-980.5	42.741	164.47	-953.09	44.525	273.33	-897.55	45.067	226.57	-867.83	1508	289.55	-955.96	1302.8	263.9
